<svg xmlns="http://www.w3.org/2000/svg" version="1.1" xmlns:xlink="http://www.w3.org/1999/xlink" xmlns:svgjs="http://svgjs.com/svgjs" width="100.000000pt" height="100.000000pt"><svg version="1.0" xmlns="http://www.w3.org/2000/svg" width="100.000000pt" height="100.000000pt" viewBox="0 0 100.000000 100.000000" preserveAspectRatio="xMidYMid meet">

<g transform="translate(0.000000,100.000000) scale(0.100000,-0.100000)" fill="#000000" stroke="none">
<path d="M157 693 c-4 -3 -7 -15 -7 -25 0 -11 -7 -18 -20 -18 -34 0 -79 -28
-95 -60 -52 -101 42 -236 160 -229 33 2 49 -3 72 -22 16 -13 40 -32 53 -41 24
-16 21 -17 -92 -17 l-118 -1 0 -25 0 -25 420 0 420 0 0 25 0 25 -126 0 -126 0
43 33 c99 75 149 178 149 307 l0 80 -363 0 c-200 0 -367 -3 -370 -7z m341 -60
c-2 -10 -13 -19 -26 -21 -17 -3 -22 2 -22 17 0 16 6 21 26 21 19 0 25 -5 22
-17z m-339 -93 c6 -28 18 -64 26 -80 19 -38 19 -40 -6 -40 -51 0 -99 51 -99
105 0 21 40 65 61 65 4 0 12 -23 18 -50z m485 40 c39 -14 24 -40 -20 -33 -46
8 -44 -10 6 -42 32 -20 40 -31 40 -55 0 -37 -26 -52 -83 -48 -31 2 -43 8 -45
21 -3 15 2 17 37 11 56 -9 56 16 0 51 -33 21 -40 31 -37 53 2 16 13 31 28 39
30 15 41 16 74 3z m-144 -108 c0 -123 -11 -152 -61 -152 -22 0 -29 5 -29 19 0
10 9 21 20 24 18 5 20 14 20 111 l0 106 25 0 25 0 0 -108z m-102 -50 c3 -18
-1 -22 -22 -22 -19 0 -26 5 -26 18 0 39 43 43 48 4z"></path>
</g>
</svg><style>@media (prefers-color-scheme: light) { :root { filter: none; } }
@media (prefers-color-scheme: dark) { :root { filter: contrast(0.3846153846153846) brightness(4.5); } }
</style></svg>